# xmcd
#
# Track frame offsets: 
#        150
#        13957
#        28624
#        41699
#        55207
#        69321
#        83751
#        97437
#        113908
#        127790
#        141060
#        154367
#        169078
#        182716
#        196777
#        210759
#        222541
#        235807
#        246964
#        259135
#        272592
#        284873
#
# Disc length: 3990 seconds
#
# Revision: 0
# Processed by: cddbd v1.5.2PL0 Copyright (c) Steve Scherf et al.
# Submitted via: ExactAudioCopy v0.99pb4
#
DISCID=480f9416
DTITLE=Various Artist - The Bristol Sessions [CD5]
DYEAR=1928
DGENRE=Country
TTITLE0=The Stamps Quartet - I'll Be Happy
TTITLE1=The Stamps Quartet - Like The Rainbow
TTITLE2=The Stamps Quartet - Because I Love Him
TTITLE3=The Stamps Quartet - Come To The Savior
TTITLE4=The Stamps Quartet - Do Your Best, Then Wear A Smile
TTITLE5=The Stamps Quartet - We Shall Reach Home
TTITLE6=Smith Brothers - My Mother Is Waiting For Me In Heaven Above
TTITLE7=Smith Brothers - She Has Climbed The Golden Stair
TTITLE8=The Palmer Sisters - We'll Sing On That Shore
TTITLE9=The Palmer Sisters - Singing The Story Of Grace
TTITLE10=The Palmer Sisters - Help Me To Find The Way
TTITLE11=The Palmer Sisters - He'll Be With Me
TTITLE12=Tarter and Gay - Brownie Blues
TTITLE13=Tarter and Gay - Unknown Blues
TTITLE14=Carolina Twins - Where Is My Mamma?
TTITLE15=Carolina Twins - When You Go A'Courtin'
TTITLE16=Carolina Twins - I Sat Upon The River Bank
TTITLE17=Carolina Twins - New Orleans Is The Town I Like Best
TTITLE18=Carolina Twins - She Tells Me That I Am Sweet
TTITLE19=Carolina Twins - Mr. Brown, Here I Come
TTITLE20=Shortbuckle Roark and Family - I Truly Understand, You Love Ano
TTITLE20=ther Man
TTITLE21=Shortbuckle Roark and Family - My Mother's Hands
EXTD=
EXTT0=
EXTT1=
EXTT2=
EXTT3=
EXTT4=
EXTT5=
EXTT6=
EXTT7=
EXTT8=
EXTT9=
EXTT10=
EXTT11=
EXTT12=
EXTT13=
EXTT14=
EXTT15=
EXTT16=
EXTT17=
EXTT18=
EXTT19=
EXTT20=
EXTT21=
PLAYORDER=
